<?xml version="1.0" encoding="utf-8"?>
<!-- Generator: Adobe Illustrator 22.0.1, SVG Export Plug-In . SVG Version: 6.00 Build 0)  -->
<svg version="1.1" id="Layer_1" xmlns="http://www.w3.org/2000/svg" xmlns:xlink="http://www.w3.org/1999/xlink" x="0px" y="0px"
	 viewBox="0 0 268 50" style="enable-background:new 0 0 268 50;" xml:space="preserve">
<style type="text/css">
	.st0{fill:#86BC25;}
	.st1{fill:#231F20;}
</style>
<g>
	<path class="st0" d="M253.3,42.7c0-4,3.2-7.1,7.1-7.1c4,0,7.1,3.2,7.1,7.1s-3.2,7.1-7.1,7.1C256.6,49.8,253.3,46.7,253.3,42.7"/>
	<path class="st1" d="M40.6,23.7c0,8.3-2.1,14.5-6.5,18.9s-10.6,6.6-18.6,6.6H-0.1V0.1h16.5c7.8,0,13.7,1.9,17.8,6
		C38.6,10.1,40.6,16,40.6,23.7 M27.1,24.1c0-4.6-0.9-7.8-2.7-10c-1.6-2.1-4.4-3.2-8-3.2h-3.5v27.4h2.9c4,0,6.8-1.2,8.7-3.5
		C26.2,32.4,27.1,28.9,27.1,24.1"/>
	<rect x="83.6" y="0" class="st1" width="12.2" height="49.3"/>
	<path class="st1" d="M136.2,30.8c0,5.9-1.5,10.6-4.7,14c-3.2,3.4-7.7,5-13.3,5c-5.5,0-9.7-1.6-13-5.2c-3.2-3.5-4.9-8.1-4.9-13.9
		c0-5.9,1.5-10.6,4.7-13.9c3.2-3.4,7.7-5,13.3-5c3.5,0,6.6,0.7,9.3,2.2c2.8,1.5,4.7,3.7,6.2,6.5C135.6,23.7,136.2,26.9,136.2,30.8
		 M113.1,30.8c0,3.2,0.4,5.5,1.2,7.1c0.7,1.6,2.1,2.4,4.1,2.4c2.1,0,3.2-0.7,4.1-2.4c0.7-1.6,1.2-4.1,1.2-7.1c0-3.2-0.4-5.5-1.2-7.1
		c-0.7-1.5-2.1-2.4-4.1-2.4c-1.8,0-3.2,0.7-4.1,2.4C113.5,25.3,113.1,27.5,113.1,30.8"/>
	<rect x="141.2" y="12.5" class="st1" width="12.2" height="36.6"/>
	<rect x="141.2" y="0" class="st1" width="12.2" height="8.3"/>
	<path class="st1" d="M178.4,39.8c1.6,0,3.7-0.4,5.9-1.2v9.3c-1.6,0.7-3.2,1.2-4.7,1.5s-3.2,0.4-5.3,0.4c-4.1,0-7.1-1-9-3.2
		c-1.8-2.1-2.8-5.3-2.8-9.6v-15h-4.3v-9.4h4.3V3.3l12.4-2.1v11.5h8v9.3h-8v14.2C175.1,38.7,176.2,39.8,178.4,39.8"/>
	<path class="st1" d="M207,39.8c1.6,0,3.7-0.4,5.9-1.2v9.3c-1.6,0.7-3.2,1.2-4.7,1.5c-1.5,0.3-3.2,0.4-5.3,0.4c-4.1,0-7.1-1-9-3.2
		c-1.8-2.1-2.8-5.3-2.8-9.6v-15h-4.3v-9.4h4.3V3.2l12.4-1.9v11.5h8v9.3h-8v14.2C203.6,38.7,204.8,39.8,207,39.8"/>
	<path class="st1" d="M245.9,16.2c-2.9-2.9-7.1-4.3-12.4-4.3c-5.6,0-10,1.6-13.1,5c-3.1,3.4-4.6,8.1-4.6,14.3
		c0,5.9,1.6,10.6,4.9,13.9c3.4,3.2,8,4.9,13.9,4.9c2.9,0,5.3-0.1,7.4-0.6c1.9-0.4,4.1-1,5.9-2.1l-1.8-8.3c-1.3,0.6-2.8,1-4,1.3
		c-1.8,0.4-3.8,0.6-5.9,0.6c-2.4,0-4.3-0.6-5.6-1.6c-1.3-1.2-2.1-2.8-2.1-4.9h22v-5.8C250.4,23.3,248.7,19.1,245.9,16.2 M228.5,26.4
		c0.1-1.9,0.7-3.5,1.6-4.4c0.9-0.9,2.1-1.3,3.7-1.3c1.5,0,2.9,0.4,3.8,1.5c0.9,1,1.3,2.4,1.5,4.3H228.5z"/>
	<path class="st1" d="M74.4,16.2c-3.1-2.9-7.1-4.3-12.4-4.3c-5.6,0-10,1.6-13.1,5c-3.1,3.4-4.6,8.1-4.6,14.3
		c0,5.9,1.6,10.6,4.9,13.9c3.4,3.2,8,4.9,13.9,4.9c2.9,0,5.3-0.1,7.4-0.6c1.9-0.4,4.1-1,5.9-2.1l-1.8-8.4c-1.3,0.6-2.8,1-4,1.3
		c-1.8,0.4-3.8,0.6-5.9,0.6c-2.4,0-4.3-0.6-5.6-1.6C57.7,38,57,36.4,57,34.3h22v-5.6C78.8,23.3,77.2,19.1,74.4,16.2 M56.9,26.4
		c0.1-1.9,0.7-3.5,1.6-4.4c0.9-0.9,2.1-1.3,3.7-1.3s2.9,0.4,3.8,1.5c0.9,1,1.3,2.4,1.5,4.3H56.9z"/>
</g>
</svg>
