<?xml version="1.0" encoding="utf-8"?>
<!-- Generator: Adobe Illustrator 22.0.1, SVG Export Plug-In . SVG Version: 6.00 Build 0)  -->
<svg version="1.1" id="Layer_1" xmlns="http://www.w3.org/2000/svg" xmlns:xlink="http://www.w3.org/1999/xlink" x="0px" y="0px"
	 viewBox="0 0 125 50" style="enable-background:new 0 0 125 50;" xml:space="preserve">
<style type="text/css">
	.st0{fill:#F5AF02;}
	.st1{fill:#E53238;}
	.st2{fill:#0064D2;}
	.st3{fill:#86B817;}
</style>
<g id="Layer_1_1_">
	<g>
		<path class="st0" d="M79.1,26.5c-5.7,0.2-9.2,1.2-9.2,4.9c0,2.4,1.9,5,6.8,5c6.6,0,10.1-3.6,10.1-9.4v-0.6
			C84.5,26.4,81.7,26.4,79.1,26.5z M93.1,34.3c0,1.8,0.1,3.6,0.2,5.2h-5.8c-0.2-1.3-0.2-2.7-0.2-3.9c-3.1,3.9-6.9,5-12.1,5
			c-7.7,0-11.8-4.1-11.8-8.8c0-6.8,5.6-9.2,15.3-9.4c2.7-0.1,5.6-0.1,8.1-0.1v-0.7c0-4.6-2.9-6.4-8-6.4c-3.8,0-6.5,1.6-6.8,4.2h-6.6
			c0.7-6.7,7.7-8.4,13.9-8.4C86.7,11,93,13.6,93,21.5L93.1,34.3L93.1,34.3z"/>
		<path class="st1" d="M25,23.2c-0.2-5.8-4.5-8-9-8c-4.9,0-8.7,2.5-9.4,8H25z M6.5,27.4c0.3,5.7,4.2,9,9.6,9c3.7,0,7-1.5,8.2-4.8
			h6.4c-1.3,6.7-8.4,9-14.5,9c-11.1,0-16.1-6.1-16.1-14.4C0.1,17,5.2,11,16.3,11c8.8,0,15.3,4.6,15.3,14.7v1.7L6.5,27.4L6.5,27.4z"
			/>
		<path class="st2" d="M47.6,36.3c5.8,0,9.8-4.2,9.8-10.5c0-6.3-4-10.5-9.8-10.5c-5.8,0-9.8,4.2-9.8,10.5
			C37.8,32.1,41.9,36.3,47.6,36.3z M31.6,0h6.2v15.7c3.1-3.6,7.3-4.7,11.4-4.7c7,0,14.7,4.7,14.7,14.8c0,8.5-6.2,14.7-14.8,14.7
			c-4.5,0-8.8-1.6-11.4-4.9c0,1.3-0.1,2.6-0.2,3.8h-6.1c0.1-2,0.2-4.5,0.2-6.5V0z"/>
		<path class="st3" d="M124.9,12l-19.3,38h-7l5.6-10.5L89.6,12h7.3l10.7,21.4L118.3,12L124.9,12L124.9,12z"/>
	</g>
</g>
<g id="Layer_2_1_">
</g>
</svg>
