<?xml version="1.0" encoding="utf-8"?>
<!-- Generator: Adobe Illustrator 22.0.1, SVG Export Plug-In . SVG Version: 6.00 Build 0)  -->
<svg version="1.1" id="Layer_1" xmlns="http://www.w3.org/2000/svg" xmlns:xlink="http://www.w3.org/1999/xlink" x="0px" y="0px"
	 viewBox="0 0 90 50" style="enable-background:new 0 0 90 50;" xml:space="preserve">
<style type="text/css">
	.st0{fill:#004B82;}
	.st1{fill:#FFFFFF;}
	.st2{fill:#5A5758;}
</style>
<g>
	<title>Artboard 1</title>
	<path class="st0" d="M45,0C20.7,0,1.3,7.3,1.3,16.4S20.9,32.8,45,32.8s43.7-7.3,43.7-16.4S69.1,0,45,0"/>
	<path class="st1" d="M70.7,11.7c0,0,0-0.2-0.1-0.2h-2.2c-0.2,0-0.3,0-0.3,0.2c-0.3,0.5-3.3,5.1-3.9,6c-0.1,0.1-0.2,0.1-0.2,0
		c-0.1-0.7-0.6-1.2-1.2-1.4C62.1,16,61.6,16,61,16.1c-1,0.2-1.9,0.6-2.7,1.3c-1.1,0.9-2.3,2.1-3.6,3c-0.7,0.5-1.7,0.9-2.4,0.3
		c-0.6-0.9-0.5-2.1,0.4-2.8c0,0,0.2,0,0.2,0.1c-0.1,0.4,0,0.8,0.4,1.1c0.4,0.4,1,0.4,1.5,0.2c0.6-0.3,0.9-0.8,1-1.5
		c0.1-0.9-0.5-1.8-1.4-1.9c0,0-0.1,0-0.1,0c-0.8,0-1.6,0.2-2.2,0.8c-0.3,0.3-0.6,0.6-0.9,1c0,0-0.2,0.1-0.2,0c0-1.3-0.5-2-1.5-2
		c-0.9,0-1.7,0.4-2.3,0.9c-0.7,0.7-1.4,1.4-2.1,2.1c0,0-0.2,0.1-0.2-0.1c0-0.8-0.2-1.5-0.6-2.2c-0.1-0.2-0.4-0.3-0.7-0.2
		c-0.3,0.1-0.5,0.3-0.8,0.5c-0.1,0.1-0.2,0.3-0.1,0.5c0.4,1.3,0.3,2.6-0.2,3.9c-0.4,1.1-1.3,2-2.4,2.4c-0.7,0.3-1.4,0.1-1.9-0.5
		c-0.6-1.2-0.3-2.6,0.6-3.6c0.8-1,1.9-1.8,3.1-2.2c0.1-0.1,0.2-0.1,0.1-0.3c0-0.1-0.2-0.5-0.2-0.6c0-0.1-0.4-0.3-0.8-0.3
		c-0.8,0.1-1.6,0.4-2.4,0.8c-1.6,1-2.8,2.5-3.4,4.2c-0.1,0.4-0.4,0.8-0.6,1.1c-0.4,0.5-0.9,1-1.4,1.4c0,0-0.1,0.2-0.1,0.3
		c0,0.1,0.6,0.7,0.6,0.7h0.3c0.5-0.4,1-0.8,1.4-1.4c0.1-0.1,0.2-0.1,0.3,0.1c0.3,1,1,1.8,2,2.1c1.8,0.6,3.7-0.3,5.1-1.8
		c0.6-0.6,1.1-1.3,1.6-2c0.9-1.3,2-2.4,3.1-3.4c0.5-0.4,1.1-0.7,1.4-0.5s0.3,0.5-0.1,1.2c-1.4,2.6-3.5,5.6-3.9,6.3
		c-0.1,0.1,0,0.2,0.1,0.2h2.1c0.1,0,0.2-0.1,0.2-0.1c1.1-1.7,2.1-3.3,3.2-5h0.1c0,0.4,0.1,0.9,0.3,1.3c0.3,0.6,1,0.9,1.6,0.9
		c0.5,0,0.9-0.1,1.3-0.3c0.4-0.1,0.8-0.3,1.1-0.6c0.2-0.1,0.2,0.1,0.2,0.1c-0.4,1.4,0.2,2.8,1.4,3.6c1.6,0.8,3.4-0.3,4.4-1.3
		c0,0,0.2-0.1,0.2,0.1c0,0.4,0.2,0.8,0.5,1.1c0.8,0.8,2.6,0.5,4.3-0.8c1.2-1,2.3-2.1,3.3-3.3c0-0.1,0-0.1,0-0.2
		c-0.2-0.2-0.4-0.4-0.5-0.5c-0.2-0.1-0.2,0-0.2,0c-1,1.1-2.2,2.2-3.4,3.1c-0.5,0.3-1.2,0.6-1.5,0.1c-0.1-0.2-0.1-0.4,0-0.7
		C64,21.9,70.5,12.2,70.7,11.7 M62.3,19.8c0.1,0.1,0.1,0.1,0.2,0.2c0,0,0,0,0,0.1c-0.2,0.5-0.5,1-0.9,1.4c-0.3,0.4-0.7,0.8-1.1,1.1
		c-0.6,0.5-1.5,1.1-2.3,0.7c-0.3-0.2-0.5-0.6-0.5-1c0.1-1.2,0.5-2.3,1.3-3.2c1-1.3,2.2-2,3-1.6c0.8,0.4,0.5,1.3,0.2,2
		C62.3,19.7,62.3,19.7,62.3,19.8"/>
	<path class="st1" d="M24.2,25.5c-2.4,0.2-4.5-1.6-4.7-4c-0.1-1.3,0.2-2.7,1.1-3.7c0.7-0.9,1.8-1.6,2.9-1.9c0.3-0.1,0.7,0,1,0.2
		c0.2,0.2,0.2,0.5,0.1,0.7c0,0-0.1,0.1-0.1,0.1c-0.9,0.4-1.7,1.1-2.2,2c-0.4,0.8-0.4,1.8,0.1,2.5c1,1.4,3.6,1.5,6.1-0.8
		c0.6-0.6,1.2-1.1,1.7-1.8c1-1.2,2-2.4,2.9-3.7c0,0,0,0,0-0.1c0,0,0,0-0.1,0c-1,0-1.9,0.3-2.6,0.9c-0.2,0.2-0.5,0.1-0.7-0.1
		c0,0,0,0,0,0c-0.2-0.3-0.1-0.6,0.2-0.8c0,0,0,0,0,0c1.3-0.8,2.7-1.2,4.2-1.3c0.1,0,0.1,0,0.2-0.1c0.6-0.8,1.1-1.5,1.7-2.3
		c0.7-0.8,1.4-1.5,2.1-2.1c0.6-0.5,1.3-1,2.1-1.3c0.2-0.1,0-0.2,0-0.2c-3.3-0.6-6.7-1.4-9.9-0.2c-2.3,0.8-3.2,2.6-2.7,3.8
		c0.3,0.8,1.4,1,2.5,0.5c0.9-0.5,1.7-1.1,2.2-2c0.3-0.5,1-0.1,0.6,0.7c-0.9,2.3-2.8,4-5,4.1c-1.6,0.1-3-1.1-3.1-2.7
		c0-0.1,0-0.2,0-0.3c0-3.4,3.7-5.6,7.7-5.9c4.7-0.4,9.2,0.9,13.9,1.4c3.6,0.5,7.2,0.4,10.7-0.4c0.3-0.1,0.6,0.1,0.7,0.3
		c0,0.1,0,0.2,0,0.3c0,0.6-0.5,1.2-1.7,1.9c-1.3,0.7-2.8,1-4.3,1c-3.6,0-6.9-1.4-10.4-2.1c0,0.2,0,0.3-0.1,0.4
		c-1.9,1.3-3.6,2.9-4.8,4.9c0,0,0,0.1,0,0.1c1-0.1,1.9-0.1,2.9-0.1c0.2,0,0.2-0.1,0.2-0.2c-0.1-0.8,0.2-1.5,0.7-2
		c0.5-0.6,1.4-0.6,1.9-0.1c0.5,0.5,0.6,1.2,0.2,1.8c-0.3,0.6-0.8,1-1.4,1.1c0,0-0.1,0-0.1,0.1c0,0.1,0.8,0.7,0.8,0.7
		c0,0.1,0,0.3-0.1,0.4c-0.1,0.1-0.2,0.1-0.3,0.2c-0.1,0-0.2-0.1-0.4-0.1c-0.4-0.2-0.7-0.5-1-0.8c-0.1-0.1-0.2-0.1-0.4-0.1
		c-1,0-2.6,0.2-3.7,0.3c-0.1,0-0.3,0.1-0.4,0.2c-1.6,2.8-3.4,5.5-5.5,7.9C28.6,24.4,26.5,25.5,24.2,25.5 M40.6,12.9
		c0,0.1,0.1,0.1,0.1,0.2c0.4-0.1,0.7-0.3,0.9-0.7c0.2-0.3,0.3-0.7,0.1-0.8c-0.2-0.1-0.5-0.1-0.7,0.1C40.7,12,40.5,12.5,40.6,12.9"/>
	<path class="st1" d="M45,31.4c-23.1,0-41.9-6.7-41.9-15S21.9,1.5,45,1.5s41.9,6.7,41.9,15S68.1,31.4,45,31.4 M45,2.7
		C22.7,2.7,4.6,8.9,4.6,16.4S22.7,30.1,45,30.1S85.4,24,85.4,16.4S67.3,2.6,45,2.6"/>
	<path class="st2" d="M16.6,45.8c0-2.9,1.5-4.2,4.2-4.2c1.2-0.1,2.4,0.3,3.3,1.1L22.9,44c-0.6-0.5-1.3-0.8-2.1-0.7
		c-1.8,0-2.5,0.9-2.5,2.5c0,1.7,0.5,2.6,2.4,2.6c1.6,0,2-0.5,2-1.7v-0.2h-2.3v-1.5h4v1.3c0,2.3-0.9,3.5-3.9,3.5
		C17.5,50,16.6,48.5,16.6,45.8"/>
	<path class="st2" d="M25.3,46.8c0-2.1,0.9-3.2,3.2-3.2s3.2,1.1,3.2,3.2c0,2.1-0.9,3.2-3.2,3.2S25.3,48.8,25.3,46.8 M30,46.8
		c0-1-0.3-1.7-1.5-1.7S27,45.7,27,46.8c0,1,0.3,1.7,1.5,1.7S30,47.8,30,46.8"/>
	<polyline class="st2" points="34.8,41.8 40.6,41.8 40.6,43.4 36.6,43.4 36.6,45.2 40.5,45.2 40.5,46.7 36.6,46.7 36.6,49.9 
		34.8,49.9 	"/>
	<path class="st2" d="M41.5,47v-3.3h1.7V47c0,0.9,0,1.5,1.2,1.5s1.2-0.6,1.2-1.5v-3.3h1.7V47c0,2.1-0.6,3-2.9,3
		C42.1,50,41.5,49.1,41.5,47"/>
	<path class="st2" d="M48.1,43.8l1.3-0.1l0.2,0.7c0.5-0.5,1.2-0.8,2-0.7v1.6c-1.4,0-1.8,0.6-1.8,1.5v3h-1.7"/>
	<path class="st2" d="M52,43.7h1.1l0.3-1.5l1.3-0.3v1.8h1.4v1.5h-1.4v2.5c0,0.5,0.1,0.7,0.8,0.7h0.7v1.4c-0.3,0-0.7,0-1,0
		c-1.7,0-2.1-0.6-2.1-1.9v-2.8h-1"/>
	<path class="st2" d="M57,41.4h1.7v2.7c0.6-0.4,1.3-0.6,2-0.5c1.8,0,2.2,1,2.2,2.6v3.7h-1.7v-3.4c0-0.8-0.1-1.3-1.1-1.3
		c-1.1,0-1.4,0.5-1.4,1.4v3.3H57"/>
	<path class="st2" d="M63.6,46.8c0-1.7,0.6-3.2,3.2-3.2s2.8,1.8,2.7,3.9h-4.3c0.1,0.7,0.5,1.1,1.6,1.1c0.7,0,1.4-0.2,1.9-0.6
		l0.9,1.1c-0.8,0.6-1.8,0.9-2.8,0.8C64.1,50,63.6,48.5,63.6,46.8 M65.2,46.2H68c0-0.7-0.2-1.2-1.2-1.2C65.7,45,65.3,45.5,65.2,46.2"
		/>
	<path class="st2" d="M70.3,43.8l1.3-0.1l0.2,0.7c0.5-0.5,1.2-0.8,2-0.7v1.6c-1.4,0-1.8,0.6-1.8,1.5v3h-1.7"/>
</g>
</svg>
