<?xml version="1.0" encoding="utf-8"?>
<!-- Generator: Adobe Illustrator 22.0.1, SVG Export Plug-In . SVG Version: 6.00 Build 0)  -->
<svg version="1.1" id="Layer_1" xmlns="http://www.w3.org/2000/svg" xmlns:xlink="http://www.w3.org/1999/xlink" x="0px" y="0px"
	 viewBox="0 0 135 50" style="enable-background:new 0 0 135 50;" xml:space="preserve">
<style type="text/css">
	.st0{fill:#231F20;}
</style>
<g>
	<title>Artboard 1</title>
	<path class="st0" d="M28.3,39.8h38.3c-0.2,1.2-0.6,2.4-1.1,3.5H28.3V39.8z"/>
	<path class="st0" d="M28.3,6.6h37.3c0.5,1.1,0.9,2.3,1.1,3.5H28.3V6.6z"/>
	<path class="st0" d="M35.2,26.5h26.6c1.2,1,2.2,2.2,3.1,3.5H35.2V26.5z"/>
	<path class="st0" d="M56,36.6h11.1c0-1.2-0.2-2.4-0.6-3.5H56V36.6z"/>
	<path class="st0" d="M35.2,23.4h26.6c1.2-1,2.2-2.2,3.1-3.5H35.2V23.4z"/>
	<path class="st0" d="M56,13.3h11c0,1.2-0.2,2.4-0.6,3.5H56V13.3z"/>
	<path class="st0" d="M28.3,46.4H63c-3.1,2.6-5.8,3.5-10.5,3.5H28.3V46.4z"/>
	<path class="st0" d="M28.3,3.5H63C59.9,0.9,57.2,0,52.4,0H28.3V3.5z"/>
	<rect x="0.7" y="0" class="st0" width="24.2" height="3.5"/>
	<rect x="0.7" y="6.6" class="st0" width="24.2" height="3.5"/>
	<rect x="0.7" y="39.8" class="st0" width="24.2" height="3.5"/>
	<rect x="7.6" y="33.1" class="st0" width="10.4" height="3.5"/>
	<rect x="7.6" y="26.5" class="st0" width="10.4" height="3.5"/>
	<rect x="7.6" y="19.9" class="st0" width="10.4" height="3.5"/>
	<rect x="7.6" y="13.3" class="st0" width="10.4" height="3.5"/>
	<rect x="35.2" y="33.1" class="st0" width="10.4" height="3.5"/>
	<rect x="35.2" y="13.3" class="st0" width="10.4" height="3.5"/>
	<polygon class="st0" points="92.6,36.6 102.2,36.6 103.5,33.1 91.4,33.1 	"/>
	<polygon class="st0" points="90.3,30 104.5,30 105.8,26.5 89.1,26.5 	"/>
	<rect x="0.7" y="46.4" class="st0" width="24.2" height="3.5"/>
	<polygon class="st0" points="97.3,49.9 97.6,49.9 98.8,46.4 96,46.4 	"/>
	<rect x="76.7" y="33.1" class="st0" width="10.4" height="3.5"/>
	<rect x="76.7" y="26.5" class="st0" width="10.4" height="3.5"/>
	<rect x="69.8" y="46.4" class="st0" width="17.3" height="3.5"/>
	<rect x="69.8" y="39.8" class="st0" width="17.3" height="3.5"/>
	<polygon class="st0" points="95,43.3 99.9,43.3 101.2,39.8 93.7,39.8 	"/>
	<rect x="107.8" y="33.1" class="st0" width="10.4" height="3.5"/>
	<rect x="107.8" y="26.5" class="st0" width="10.4" height="3.5"/>
	<rect x="107.8" y="46.4" class="st0" width="17.3" height="3.5"/>
	<rect x="107.8" y="39.8" class="st0" width="17.3" height="3.5"/>
	<polygon class="st0" points="94,13.3 76.7,13.3 76.7,16.7 95.2,16.7 	"/>
	<polygon class="st0" points="98.5,19.9 97.4,23 96.3,19.9 76.7,19.9 76.7,23.4 87.1,23.4 87.1,20.6 88,23.4 106.9,23.4 107.8,20.6 
		107.8,20.6 107.8,23.4 118.2,23.4 118.2,19.9 	"/>
	<polygon class="st0" points="89.3,0 69.8,0 69.8,3.5 90.5,3.5 	"/>
	<polygon class="st0" points="91.7,6.6 69.8,6.6 69.8,10.1 92.9,10.1 	"/>
	<polygon class="st0" points="100.9,13.3 118.2,13.3 118.2,16.7 99.7,16.7 	"/>
	<polygon class="st0" points="105.6,0 125.1,0 125.1,3.5 104.3,3.5 	"/>
	<polygon class="st0" points="103.2,6.6 125.1,6.6 125.1,10.1 102,10.1 	"/>
	<path class="st0" d="M128.9,47.3c0-1.5,1.2-2.7,2.7-2.7s2.7,1.2,2.7,2.7s-1.2,2.7-2.7,2.7S128.9,48.8,128.9,47.3 M133.9,47.3
		c0-1.3-1.1-2.3-2.4-2.2c-1.3,0-2.3,1.1-2.2,2.4c0,1.2,1.1,2.2,2.3,2.2c1.3,0,2.3-1,2.3-2.3C133.9,47.4,133.9,47.3,133.9,47.3
		 M133,48.8h-0.5l-0.9-1.4H131v1.4h-0.4v-3.1h1.3c0.8,0,1.1,0.3,1.1,0.8c0,0.5-0.4,0.8-1,0.8L133,48.8z M131.5,47.1
		c0.4,0,1.1,0.1,1.1-0.6c0-0.5-0.4-0.5-0.8-0.5H131v1.1H131.5z"/>
</g>
</svg>
