<?xml version="1.0" encoding="utf-8"?>
<!-- Generator: Adobe Illustrator 22.0.1, SVG Export Plug-In . SVG Version: 6.00 Build 0)  -->
<svg version="1.1" id="Layer_1" xmlns="http://www.w3.org/2000/svg" xmlns:xlink="http://www.w3.org/1999/xlink" x="0px" y="0px"
	 viewBox="0 0 302 50" style="enable-background:new 0 0 302 50;" xml:space="preserve">
<style type="text/css">
	.st0{fill:#231F20;}
</style>
<title>Artboard 1</title>
<path class="st0" d="M210.2,38.8c-0.6,0.6-1.3,1.1-2.1,1.4c-0.7,0.2-1.4,0.2-2.2,0c-0.3-0.1-0.1-0.5,0.4-0.9c0.6-0.4,1.2-0.7,1.9-1
	c0.7-0.5,1.6-0.7,2.4-0.4C211.3,38.2,210.5,38.6,210.2,38.8 M298.2,23c-2.4-0.2-10.9-0.4-15.3-0.6c-4.4-0.2-10.1-0.9-13.8-0.9
	c-2,0-6.1,0.5-7.7-0.6c-1.7-1.1-8.8-2-10.9-2c-2,0-6.3-1.1-9.2-1.3s-4.2-2.2-9.2-2.2c-4.2,0-1.1,4,1.7,4.7c2.8,0.7,2.8,5.7,3.7,10.7
	s-1.3,7-2.4,8.1c-1.1,1.1-3.2,3.3-4.7,2.2c-1.6-1.1-0.6-2.4,2.2-6.3c2.8-3.9-1.8-4.6-3.3-3s-3.2,3.9-5.5,5.3s-4.1,3.6-8.8,5
	s-3.9-1.1,0.6-3.9c2.5-1.5,1-4.4-2.3-4.2c-3.5,0.2-3.7,0.9-7.5,2.9c-2.5,1.3-3.4,2.5-3.4,4c0.2,0.7,0.4,1.3,0.6,1.9
	c0.1,0.3-0.6,0.5-0.6,0.9s0.9,0.7,1,0.8c0.6,1.3,1.9,2.1,3.9,2.1s7-2,12.7-5c5.7-3,4.8-1.1,5.7,0.6c0.9,1.7,2,2,4.8,1.3
	c2.8-0.7,1.7,0.7,0.9,2c-0.7,1.3-0.4,2,1.8,3.7c2.2,1.7,2.6-0.9,2.9-2.8c0.4-1.8,5.5-7,6.4-8.5s4-2,5.2-3.2c1.3-1.3,1.5-3.4,0.5-5
	c-1.1-1.8-4,1.1-5.9,2.8s-2.2,0.2-2.4-1.5c-0.3-3.1-1-6.1-2-9c-1.3-3.3,1.8-2.8,2.9-2.4s4.1,0.5,5.7,0.9c1.7,0.4,7.9,0.7,11.1,1.1
	c3.2,0.4,6.1,1.5,9.9,1.5l12,1.5c1.1,0.2,1.5-0.7,2.6-0.6c1.1,0.2,1.8,1.5,2.8,1.7c0.9,0.2,0.9-0.4,2.2-0.5c1.3-0.2,5.9,0.7,7.7,1.3
	s2.2,2,3.7,2s2.6-1.3,3.3-3.3S300.7,23.1,298.2,23 M58.7,45.2C55,45.6,56.1,47,55,47c-1.1,0-4.7-0.4-2.6-2.6c2.1-2.2,6.8-8,9.4-8
	c2.4,0,3.2,2.2,3.2,3.9C64.9,41.9,62.5,44.8,58.7,45.2 M40.6,34.8c-0.7,0.6-1.6,1.1-2.5,1.4c-0.6,0.2-1.3,0.3-2,0.3
	c-0.4,0-1.1,0.1-0.6-0.4c0.3-0.3,0.6-0.5,0.9-0.7c0.5-0.4,2.4-1.7,3.8-1.6C41.1,33.9,40.9,34.5,40.6,34.8 M34.7,18.8
	c1.7-3,2.4-2.9,3.6-4.4c1.9-2.3,8.8-10.8,15-11.1c3.5-0.1,3,3.3,2.1,5s-6.2,7.5-9.8,9.2s-6.5,2.8-8.1,2.9S33,21.8,34.7,18.8
	 M62.3,33.8c-2.6-1.5-2.1-1.2-3.2-0.1c-1.1,1.1-2.1,2.5-3.3,3c-1.2,0.6-6.6,2.1-9.8,1.9c-3.2-0.1-4.8-0.7-2.6-2.4
	c2.2-1.7,2.4-5.6-1.2-5.5s-8.4,2.6-9.7,5.2c-0.7,1.4-0.4,2.3-2.8,3.4c-2.8,1.3-6,2.4-7.6,2c-1.7-0.4-3.3-0.3-2.8-2.9
	s1.1-2.9,2.2-6.2c1.7-1.2,6.1-6.1,7.6-7.7c3-0.8,13.7-2.8,18.8-5.9c6.5-4,15-12.5,9.5-17.5c-3.9-3.6-13.2,3-15.2,5.1
	s-13,13.1-14.4,14.5c-2.1-1-6-1.3-7.7-4.3c-1.7-2.8-2.6-4-4.1-3c-0.9,0.6-0.5,2.1,0.1,3.7c1,2.9,3.4,5.1,6.3,5.9
	c4.1,1.2,1.9,1.8,1.1,2.6c-0.8,0.8-9.6,9-13.6,12.2c-4,3.2-11.5,6.6-9.5,9.9c0.8,1.4,3.6-1.1,4.4-1.4s1.8-0.1,2.5-0.8
	s2.6-3.4,4.6-3.6c1.9-0.1,2.7,2.3,4.7,2.6c2.6,0.4,13.8-1.1,15.9-2.8c1.8,0.4,3.6,0.7,5.4,0.7c1.5-0.1,8.3-0.8,9.9-1.4
	s2.5,0.3,1.9,1.1c-0.6,0.8-3.2,4.4-0.8,6.6c2.3,2.2,9.9,0,12.7-1.5s6.5-5,6.5-6.9S65,35.3,62.3,33.8 M109.5,23.1
	c-11.9-0.4-2.6-3.4,1.1-6.1c2-1.4,4.1-3.2,5.4-3.2s2.5,0.4,2.4,4.8C118.3,23.1,112.2,23.2,109.5,23.1 M113.3,31.8
	c-0.3,1.7-1.1,3.3-2.2,4.7c-1.9,0.1-6.8-1.1-9.4-1.2c-2.3-0.1-4.5-0.1-6.8,0c-1.4,0.1-1.7-1.1-1-2.2c0.7-1.1,3.9-5.2,5.1-6.2
	c1.5,0,3,0.2,4.4,0.4c2.2,0.2,5.1,0.1,6.6,0.3C111.6,28.5,113.5,30.1,113.3,31.8 M107,41c-1.9,2.1-8.8,5.9-11.9,5.7
	c-3-0.3-5.7-4.4-3.4-8.6c3,0,5-0.1,6.6-0.1c2.9,0,5.7,0.3,8.6,0.7C109.5,39.2,108.9,39,107,41 M200.3,44.3c-0.8,0.1-1.1-1.4-1-2.6
	c0.1-1.2,1.7-3.2-1.9-3.9c-3.6-0.7-7.2,4.7-8.8,4.1s1-4.8-1.1-5s-5.8,2.1-7.9,3.4c-2.1,1.4-8.6,4.1-10.2,3.7
	c-1.7-0.4-1.4-2.5-1.4-3.2c0-0.7,0.4,0.6,0.6-1.7c0.1-2.2-2.2-2.6-3.5-2.9c-0.9-0.2-1.9-1.2-2.4,0.6c-0.1,0.7-0.4,1.3-1,1.8
	c-0.6,0.6-3.4,2.8-5.4,4.1c-1.9,1.4-7.2,3.9-9.4,3.3c-2.2-0.5-3-2.4-1.5-5.5c1.5-3.2-1.7-3.4-4.8,0c-1.3,1.4-5,2.3-8,3.7
	c-2.1,1-4,0-1.5-2.1c1.2-1.1,2.4-2.4,3.4-3.7c0.7-1,0.8-2.6-0.7-3.2s-1.8,0-2.8,0.8c-1,0.8-2.2,0.7-3.2,0.7c-0.9,0-8.3,0.1-10.1,0.1
	s-1.7-1.7-1.7-2.2s1.2-2.2,0-5.7s1.1-3.2,2.5-4c1.4-0.8,4.6-2.1,4.8-6.3c0.3-4.3-2.1-8.2-5.2-8.4c-4.1-0.3-7.9,2.6-10.2,4.1
	s-8,5-9.8,6.9c-1.8-0.1-5.5,0-6.3,0.5c-0.8,0.5-1.1,2.9-0.1,2.9c1,0,0.6,1.5-0.3,2.1s-2.9,3.5-4.6,5c-1.7,1.5-5.1,6.3-5.5,7.7
	c-0.4,1.4-0.3,4.8,1.8,5.1s2.6-2.5,5-2.1c1.8,0.3,0.6,6.3,7.3,7c3.6,0.4,8.1-1.8,10.6-3.3c2.5-1.5,7.7-5.2,9.3-7.6
	c2.8-0.1,5.5,0,8.3,0.3c1.8,0.1,5.4-0.7,5.4,0.6c0,1.2-5.5,5.8-5.5,6.3c0,0.5,0,2.2,2.8,2.4c4.3,0.2,9.4-5,12.4-4.8
	c4.3,0.2-2.5,5,8.1,5s14.9-8.8,17.1-8.7c4.1,0.3-2.6,6.2,3.6,6.5c7,0.3,14.5-6.3,16-6.1c1.5,0.3,0.3,2.6-0.3,3.7
	c-0.6,0.9-0.3,2.1,0.6,2.6c0.3,0.2,0.7,0.3,1,0.3c1.9,0.1,8.4-6.1,9.7-5.9c1.2,0.1,0.8,1.8,0.8,3.6s1.4,1.8,2.5,2.2
	c1.1,0.4,1.4-0.4,2.4-1C201.3,45.3,201.1,44.2,200.3,44.3"/>
</svg>
