<?xml version="1.0" encoding="utf-8"?>
<!-- Generator: Adobe Illustrator 22.0.1, SVG Export Plug-In . SVG Version: 6.00 Build 0)  -->
<svg version="1.1" id="Layer_1" xmlns="http://www.w3.org/2000/svg" xmlns:xlink="http://www.w3.org/1999/xlink" x="0px" y="0px"
	 viewBox="0 0 62 50" style="enable-background:new 0 0 62 50;" xml:space="preserve">
<style type="text/css">
	.st0{fill:#0066B1;}
	.st1{fill:#FFFFFF;}
	.st2{fill:#ED1C25;}
</style>
<title>Artboard 1</title>
<g>
	<path class="st0" d="M53.8,25c0,13.7-11.3,25-25,25s-25-11.3-25-25s11.3-25,25-25S53.8,11.3,53.8,25"/>
	<path class="st1" d="M29.1,2.3c0,0.1-0.1,0.2-0.2,0.2c-0.1,0-0.2-0.1-0.2-0.2c0-0.1,0.1-0.2,0.2-0.2l0,0C29,2.1,29.1,2.2,29.1,2.3"
		/>
	<path class="st1" d="M30.5,5.4c0,0.1-0.1,0.2-0.2,0.2c-0.1,0-0.2-0.1-0.2-0.2s0.1-0.2,0.2-0.2C30.4,5.1,30.5,5.2,30.5,5.4"/>
	<path class="st1" d="M34.2,10.4c0,0.1-0.1,0.2-0.2,0.2c-0.1,0-0.2-0.1-0.2-0.2c0-0.1,0.1-0.2,0.2-0.2
		C34.1,10.2,34.2,10.3,34.2,10.4"/>
	<path class="st1" d="M28.3,7.1c0,0.1-0.1,0.2-0.2,0.2c-0.1,0-0.2-0.1-0.2-0.2c0-0.1,0.1-0.2,0.2-0.2c0,0,0,0,0,0
		C28.2,6.9,28.3,7,28.3,7.1"/>
	<path class="st1" d="M30.5,8.3c0,0.1-0.1,0.2-0.2,0.2c-0.1,0-0.2-0.1-0.2-0.2c0-0.1,0.1-0.2,0.2-0.2C30.4,8.1,30.5,8.1,30.5,8.3
		C30.5,8.3,30.5,8.3,30.5,8.3"/>
	<path class="st1" d="M27.7,5c0,0.1-0.1,0.2-0.2,0.2S27.2,5.2,27.2,5s0.1-0.2,0.2-0.2S27.7,4.9,27.7,5"/>
	<path class="st1" d="M24.3,7c0,0.1-0.1,0.2-0.2,0.2c-0.1,0-0.2-0.1-0.2-0.2c0-0.1,0.1-0.2,0.2-0.2C24.3,6.8,24.3,6.9,24.3,7"/>
	<path class="st1" d="M24.9,7.4c0,0.1-0.1,0.2-0.2,0.2c-0.1,0-0.2-0.1-0.2-0.2c0-0.1,0.1-0.2,0.2-0.2c0,0,0,0,0,0
		C24.8,7.2,24.9,7.3,24.9,7.4"/>
	<path class="st1" d="M25.5,7.8c0,0.1-0.1,0.2-0.2,0.2c-0.1,0-0.2-0.1-0.2-0.2c0-0.1,0.1-0.2,0.2-0.2c0,0,0,0,0,0
		C25.4,7.6,25.5,7.7,25.5,7.8"/>
	<path class="st1" d="M24.6,8.6c0,0.1-0.1,0.2-0.2,0.2c-0.1,0-0.2-0.1-0.2-0.2c0-0.1,0.1-0.2,0.2-0.2l0,0
		C24.5,8.4,24.6,8.5,24.6,8.6"/>
	<path class="st1" d="M19.9,12c0,0.1-0.1,0.2-0.2,0.2c-0.1,0-0.2-0.1-0.2-0.2c0-0.1,0.1-0.2,0.2-0.2l0,0
		C19.8,11.7,19.9,11.8,19.9,12"/>
	<path class="st1" d="M20.8,13c0,0.1-0.1,0.2-0.2,0.2c-0.1,0-0.2-0.1-0.2-0.2c0-0.1,0.1-0.2,0.2-0.2l0,0
		C20.7,12.8,20.8,12.9,20.8,13"/>
	<path class="st1" d="M20.1,30.2c0,0.1-0.1,0.2-0.2,0.2c-0.1,0-0.2-0.1-0.2-0.2c0-0.1,0.1-0.2,0.2-0.2c0,0,0,0,0,0
		C20,30,20.1,30.1,20.1,30.2"/>
	<path class="st1" d="M20.2,35c0,0.1-0.1,0.2-0.2,0.2c-0.1,0-0.2-0.1-0.2-0.2c0-0.1,0.1-0.2,0.2-0.2C20.1,34.7,20.2,34.8,20.2,35"/>
	<path class="st1" d="M17.5,37.4c0,0.1-0.1,0.2-0.2,0.2c-0.1,0-0.2-0.1-0.2-0.2c0-0.1,0.1-0.2,0.2-0.2c0,0,0,0,0,0
		C17.4,37.2,17.5,37.3,17.5,37.4"/>
	<path class="st1" d="M14.3,38.4c0,0.1-0.1,0.2-0.2,0.2s-0.2-0.1-0.2-0.2c0-0.1,0.1-0.2,0.2-0.2S14.3,38.2,14.3,38.4"/>
	<path class="st1" d="M13.6,36.2c0,0.1-0.1,0.2-0.2,0.2s-0.2-0.1-0.2-0.2s0.1-0.2,0.2-0.2S13.6,36,13.6,36.2"/>
	<path class="st1" d="M13.3,37.6c0,0.1-0.1,0.2-0.2,0.2s-0.2-0.1-0.2-0.2c0-0.1,0.1-0.2,0.2-0.2S13.3,37.5,13.3,37.6"/>
	<path class="st1" d="M10.8,36.4c0,0.1-0.1,0.2-0.2,0.2c-0.1,0-0.2-0.1-0.2-0.2c0-0.1,0.1-0.2,0.2-0.2h0
		C10.8,36.2,10.8,36.3,10.8,36.4"/>
	<path class="st1" d="M19.3,40.3c0,0.1-0.1,0.2-0.2,0.2s-0.2-0.1-0.2-0.2c0-0.1,0.1-0.2,0.2-0.2h0C19.2,40.1,19.3,40.2,19.3,40.3"/>
	<path class="st1" d="M21.8,38.5c0,0.1-0.1,0.2-0.2,0.2c-0.1,0-0.2-0.1-0.2-0.2c0-0.1,0.1-0.2,0.2-0.2
		C21.7,38.2,21.8,38.3,21.8,38.5"/>
	<path class="st1" d="M22.1,40.9c0,0.1-0.1,0.2-0.2,0.2c-0.1,0-0.2-0.1-0.2-0.2c0-0.1,0.1-0.2,0.2-0.2C22,40.7,22.1,40.8,22.1,40.9"
		/>
	<path class="st1" d="M32.5,38.6c0,0.1-0.1,0.2-0.2,0.2c-0.1,0-0.2-0.1-0.2-0.2c0-0.1,0.1-0.2,0.2-0.2
		C32.4,38.4,32.5,38.5,32.5,38.6"/>
	<path class="st1" d="M27.7,40.3c0,0.1-0.1,0.2-0.2,0.2c-0.1,0-0.2-0.1-0.2-0.2c0-0.1,0.1-0.2,0.2-0.2
		C27.6,40.1,27.7,40.2,27.7,40.3"/>
	<path class="st1" d="M40.7,42.8c0,0.1-0.1,0.2-0.2,0.2c-0.1,0-0.2-0.1-0.2-0.2c0-0.1,0.1-0.2,0.2-0.2
		C40.6,42.6,40.7,42.7,40.7,42.8"/>
	<path class="st1" d="M41.8,33.1c0,0.1-0.1,0.2-0.2,0.2c-0.1,0-0.2-0.1-0.2-0.2s0.1-0.2,0.2-0.2C41.7,32.9,41.8,33,41.8,33.1"/>
	<path class="st1" d="M39.8,34.5c0,0.1-0.1,0.2-0.2,0.2c-0.1,0-0.2-0.1-0.2-0.2c0-0.1,0.1-0.2,0.2-0.2
		C39.7,34.3,39.8,34.4,39.8,34.5"/>
	<path class="st1" d="M41.8,34.9c0,0.1-0.1,0.2-0.2,0.2c-0.1,0-0.2-0.1-0.2-0.2c0-0.1,0.1-0.2,0.2-0.2
		C41.7,34.7,41.8,34.8,41.8,34.9"/>
	<path class="st1" d="M39.8,37.3c0,0.1-0.1,0.2-0.2,0.2c-0.1,0-0.2-0.1-0.2-0.2c0-0.1,0.1-0.2,0.2-0.2h0
		C39.7,37.1,39.8,37.2,39.8,37.3"/>
	<path class="st1" d="M44.9,31.8c0,0.1-0.1,0.2-0.2,0.2c-0.1,0-0.2-0.1-0.2-0.2c0-0.1,0.1-0.2,0.2-0.2
		C44.8,31.6,44.9,31.7,44.9,31.8C44.9,31.8,44.9,31.8,44.9,31.8"/>
	<path class="st1" d="M45.4,33c0,0.1-0.1,0.3-0.3,0.3c-0.1,0-0.3-0.1-0.3-0.3s0.1-0.3,0.3-0.3C45.3,32.8,45.4,32.9,45.4,33"/>
	<path class="st1" d="M48.9,34.5c0,0.1-0.1,0.2-0.2,0.2s-0.2-0.1-0.2-0.2s0.1-0.2,0.2-0.2S48.9,34.4,48.9,34.5"/>
	<path class="st1" d="M45.3,37.1c0,0.1-0.1,0.2-0.2,0.2c-0.1,0-0.2-0.1-0.2-0.2l0,0c0-0.1,0.1-0.2,0.2-0.2
		C45.2,36.9,45.3,37,45.3,37.1"/>
	<path class="st1" d="M47.6,35c0,0.1-0.1,0.2-0.2,0.2s-0.2-0.1-0.2-0.2c0-0.1,0.1-0.2,0.2-0.2l0,0C47.5,34.8,47.6,34.9,47.6,35"/>
	<path class="st1" d="M47.2,38.3c0,0.1-0.1,0.2-0.2,0.2c-0.1,0-0.2-0.1-0.2-0.2c0-0.1,0.1-0.2,0.2-0.2h0
		C47.1,38.1,47.2,38.2,47.2,38.3"/>
	<path class="st1" d="M33.5,4.8c0-0.1,0.1-0.2,0.3-0.2L33.9,4L34,4.5c0.1,0,0.2,0.1,0.2,0.3l0.5,0.1L34.2,5c0,0.1-0.1,0.2-0.3,0.2
		l-0.1,0.6l-0.1-0.6c-0.1,0-0.2-0.1-0.2-0.3L33,4.9L33.5,4.8z"/>
	<path class="st1" d="M19.5,43.2c0-0.1,0.1-0.2,0.3-0.3l0.1-0.5l0.1,0.5c0.1,0,0.2,0.1,0.2,0.3l0.5,0.1l-0.5,0.1
		c0,0.1-0.1,0.2-0.3,0.2l-0.1,0.6l-0.1-0.6c-0.1,0-0.2-0.1-0.2-0.3l-0.5-0.1L19.5,43.2z"/>
	<path class="st1" d="M45.3,38.3c0-0.1,0.1-0.2,0.3-0.2l0.1-0.5l0.1,0.5c0.1,0,0.2,0.1,0.2,0.3l0.5,0.1L46,38.5
		c0,0.1-0.1,0.2-0.3,0.2l-0.1,0.6l-0.1-0.6c-0.1,0-0.2-0.1-0.2-0.3l-0.5-0.1L45.3,38.3z"/>
	<path class="st1" d="M47.4,32.7c0-0.1,0.1-0.2,0.3-0.2l0.1-0.5l0.1,0.5c0.1,0,0.2,0.1,0.2,0.3l0.5,0.1L48,32.9
		c0,0.1-0.1,0.2-0.3,0.2l-0.1,0.6l-0.1-0.6c-0.1,0-0.2-0.1-0.2-0.3l-0.5-0.1L47.4,32.7z"/>
	<path class="st1" d="M22,12.3c0-0.1,0.1-0.2,0.3-0.2l0.1-0.5l0.1,0.5c0.1,0,0.2,0.1,0.2,0.3l0.5,0.1l-0.5,0.1
		c0,0.1-0.1,0.2-0.3,0.2l-0.1,0.6l-0.1-0.6c-0.1,0-0.2-0.1-0.2-0.3l-0.5-0.1L22,12.3z"/>
	<path class="st1" d="M20.3,24c1.8,3.2,4,5.6,5.7,7.8c1.5,2,4.5,3,3.5,3.9c-1.2,1.1-4.1-3.6-4.1-3.6c-2.1-2.5-4-5.2-5.6-8L20.3,24z"
		/>
	<path class="st2" d="M0.8,32.4c8.9-5.9,24.5-9.6,37.3-14.7C47.9,13.8,56.5,9,61.2,2.3C49.4,26.3,16.5,23.5,1.4,32.6L0.8,32.4z"/>
	<path class="st1" d="M24.6,26.2l-1.3-3.3l-0.9,3.3H24.6z M21.5,20.5H26l3.2,8.1l1.1,1.1h-5.8l1.1-1.1l-0.4-1H22l-0.3,1.1l0.8,0.9
		h-3l1.1-1.1l2.1-7.1L21.5,20.5z"/>
	<path class="st1" d="M45.5,26.2l-1.3-3.3l-1,3.3H45.5z M42.3,20.5h4.6l3.2,8.1l1.1,1.1h-5.8l1.1-1.1l-0.4-1h-3.2l-0.3,1.1l0.8,0.9
		h-3l1.1-1.1l2.1-7.1L42.3,20.5z"/>
	<polygon class="st1" points="15.5,26.2 15.5,21.4 14.6,20.5 17.6,20.5 16.7,21.4 16.7,28.6 17.8,29.6 13.7,29.6 10.2,23.7 
		10.2,28.6 11.1,29.6 7.9,29.6 9,28.6 9,21.4 8,20.5 12.1,20.5 	"/>
	<path class="st1" d="M38.9,22.8L38.8,20l-1,0.7c-1.3-0.5-2.9-0.5-4,0.1c-1,0.5-2.1,1.5-2,3c0.1,1.5,1.3,2,2.3,2.5
		c1.3,0.6,2.7,0.8,2.7,1.6c0,0.5-0.8,0.9-1.5,0.8c-0.6,0-2.5-0.2-3.5-1.3l0.2,3l1.1-0.8c1.3,0.5,2.9,0.7,4.3,0.2
		c1.5-0.5,3-1.7,2.1-3.8c-0.4-0.9-1.4-1.5-2-1.7c-0.5-0.2-2.2-0.9-2.7-1.1c-0.5-0.3-0.5-1.2,0.8-1.4C36.9,21.5,38.5,22.4,38.9,22.8"
		/>
	<path class="st2" d="M7.7,46.4C25.6,28.2,52.3,19.7,61.2,2.3c-5.3,17-33.9,26.3-53.5,45L7.7,46.4z"/>
	<path class="st1" d="M19.9,24.1c-0.2-0.4-0.4-0.7-0.6-1.1c-4.8-8.6-4.1-17.4,4.6-13.5c7.3,3.2,14.3,12.3,17.2,18.8
		c1.3,3,4.8,14.7-6.5,10l0-0.1c10.7,4.4,8.8-6.7,3.1-15.3c-3.2-4.8-7.4-8.8-10.1-10.8c-8.8-6.5-14.2-2.5-8,10.1
		c0.3,0.6,0.6,1.1,0.9,1.6L19.9,24.1z"/>
</g>
</svg>
