<?xml version="1.0" encoding="utf-8"?>
<!-- Generator: Adobe Illustrator 22.0.1, SVG Export Plug-In . SVG Version: 6.00 Build 0)  -->
<svg version="1.1" id="Logo_Corporate_Vert._x5F_P430"
	 xmlns="http://www.w3.org/2000/svg" xmlns:xlink="http://www.w3.org/1999/xlink" x="0px" y="0px" viewBox="0 0 52 50"
	 style="enable-background:new 0 0 52 50;" xml:space="preserve">
<style type="text/css">
	.st0{fill:#748086;}
</style>
<g>
	<path class="st0" d="M10.1,37.4C10,37.6,9.9,37.7,9.9,38v7.7h0c0,0-4.2-7.6-4.4-7.9c-0.1-0.2-0.3-0.4-0.5-0.5
		c-0.2-0.1-0.4-0.2-0.9-0.2H2.7c-0.3,0-0.5,0.1-0.7,0.3c-0.1,0.1-0.2,0.3-0.2,0.6v11c0,0.3,0.1,0.4,0.2,0.6c0.1,0.2,0.3,0.3,0.7,0.3
		h0.8c0.3,0,0.5-0.1,0.7-0.3c0.1-0.1,0.2-0.3,0.2-0.6V41h0c0,0,4.4,7.8,4.6,8.1c0.2,0.4,0.7,0.7,1.3,0.7h1.4c0.3,0,0.5-0.1,0.7-0.3
		c0.1-0.1,0.2-0.3,0.2-0.6v-9.9h17.8c0.2,0,0.3-0.1,0.4-0.1c0.1-0.1,0.2-0.2,0.2-0.4v-0.8c0-0.2-0.1-0.3-0.2-0.4
		c-0.1-0.1-0.2-0.1-0.4-0.1H10.8C10.5,37.1,10.3,37.3,10.1,37.4L10.1,37.4L10.1,37.4z M41.6,11.6c-3.2-4.7-6-6.3-6.7-7.1
		c-0.9-0.8-1.5-1.8-1.9-2.2C32,1.3,30.8,0,28.8,0c-1.9,0-3.2,1.2-3.6,2.3C25.1,2.6,25,3,24.9,3.1c-0.2,0.3-1,1.7-1.4,2.3h1.6
		l-0.8,1.5c0.9-0.2,1.5-0.3,2.4-0.3c0.8,0,1.3,0.2,1.5,0.7c0.4,0.9,0.4,3.6,1.2,5.6c0.7,1.9,2.4,3.8,4.3,5.2c0,0,0.1,0,0.1,0
		c0.1,0,0.2-0.1,0.2-0.1c0-0.1,0-0.1-0.1-0.1c-1.6-1.6-2.9-3.4-3.6-5.3c-0.7-1.9-0.6-4.6-1.2-5.7c-0.4-0.8-1.3-1-2-1
		c-0.6,0-1.2,0.1-1.5,0.2l0.7-1.2h-1.2c0.2-0.4,0.5-0.8,0.6-1.1c0.1-0.2,0.2-0.5,0.3-0.8C26.6,1.7,27.5,1,28.8,1
		c1.6,0,2.5,1,3.5,2.1c0.4,0.5,1.1,1.5,1.9,2.2c0.6,0.5,1.6,1.1,3.2,2.8c0.9,1,2,2.2,3.2,3.9c4.1,6,6.8,11.3,8.3,15.5l0,0
		c-4.3-2.9-8.1-5.7-11.1-9.1c-2.1-2.4-4-5.2-5.6-8.8c-0.1-0.2-0.2-0.5-0.3-0.7c0-0.1-0.1-0.1-0.2-0.1c-0.1,0-0.1,0.1-0.1,0.1
		c0,0.1,0,0.3,0.1,0.7c0.9,3.7,3.3,7.1,5.8,9.8c2.5,2.8,5.4,5.1,7.8,6.9l1.8,5.3c0,0.1,0.1,0.3,0.1,0.4c0,0.1,0,0.2-0.1,0.2
		c-0.1,0.1-0.1,0.1-0.3,0.1h-0.6c-0.2,0-0.3,0-0.4-0.1c-0.1-0.1-0.1-0.2-0.2-0.3c-0.2-0.5-1.1-3.3-1.3-3.8c0-0.1-0.1-0.1-0.2-0.1
		c-0.1,0-0.1,0.1-0.1,0.1c0,0.1,0,0.1,0.1,0.4c0.2,1.3,0.5,2.7,0.7,3.2c0.1,0.2,0.1,0.5,0.1,0.6c0,0.2,0,0.2-0.2,0.4l-0.6,0.6
		c-0.1,0.1-0.2,0.2-0.3,0.2c-0.1,0-0.2-0.1-0.3-0.3c-0.6-3-1.6-6.8-1.9-7.8c-0.1-0.2-0.1-0.4-0.2-0.4c-0.1,0-0.2,0.1-0.2,0.2
		c0,0.1,0,0.2,0,0.2c0.2,1.1,0.8,5,1.5,8.6c0.1,0.6,0.3,1,0.9,1c0.2,0,0.5-0.1,0.7-0.3c0.3-0.3,0.5-0.4,0.9-0.9
		c0.3-0.3,0.5-0.4,1-0.4h1.3c0.3,0,0.5-0.1,0.6-0.2c0.1-0.1,0.2-0.3,0.2-0.6c0-0.3-0.1-0.5-0.2-0.7c-0.3-0.9-1.4-3.8-1.7-4.6l0,0
		c1.1,0.8,2.6,1.8,3.3,1.8c0.2,0,0.3-0.1,0.3-0.4C50.2,26.9,47.6,20.5,41.6,11.6L41.6,11.6L41.6,11.6z M17.9,40.4
		c-3,0-4.6,2.3-4.6,4.8c0,2.6,1.8,4.9,4.6,4.9c1.4,0,2.8-0.5,3.6-1.5c0.3-0.4,0.6-1,0.6-1.3c0-0.1,0-0.2-0.1-0.3
		c-0.1-0.1-0.2-0.1-0.3-0.1h-1.4c-0.3,0-0.5,0.1-0.6,0.3c-0.4,0.6-1,0.9-1.8,0.9c-1.3,0-2.1-1-2.2-2h5.9c0.3,0,0.5-0.1,0.6-0.2
		c0.1-0.1,0.2-0.3,0.2-0.7c0-1.1-0.3-2.3-1.1-3.2C20.7,41,19.5,40.4,17.9,40.4L17.9,40.4L17.9,40.4z M27.1,40.4
		c-2.3,0-3.9,1.1-3.9,2.9c0,0.6,0.2,1.1,0.6,1.5c0.4,0.5,1.1,0.8,2,1l2,0.5c0.5,0.1,1,0.3,1,0.8c0,0.7-0.8,1-1.6,1
		c-0.4,0-0.8-0.1-1.2-0.2c-0.2-0.1-0.4-0.3-0.6-0.5c-0.1-0.2-0.2-0.3-0.4-0.5c-0.1-0.1-0.3-0.1-0.5-0.1h-1.1c-0.2,0-0.3,0.1-0.4,0.2
		C23,47,23,47.1,23,47.3c0,0.3,0.1,0.8,0.4,1.2c0.6,0.9,2,1.6,3.7,1.6c1.7,0,4.1-0.7,4.1-3c0-0.6-0.2-1.1-0.5-1.5
		c-0.4-0.5-1-0.9-1.9-1.1l-1.9-0.5c-0.8-0.2-1.2-0.3-1.2-0.8c0-0.5,0.4-0.9,1.4-0.9c0.6,0,1.1,0.1,1.5,0.5c0.3,0.3,0.2,0.5,0.5,0.6
		c0.1,0.1,0.3,0.1,0.5,0.1h1c0.2,0,0.3,0,0.3-0.1c0.1-0.1,0.1-0.2,0.1-0.4c0-0.4-0.3-1-0.8-1.5C29.4,40.8,28.4,40.4,27.1,40.4
		L27.1,40.4L27.1,40.4z M12.3,1.7c0.2-0.4,0.6-0.7,1-0.7c0.6,0,1.2,0.5,1.2,1.2c0,0.4-0.2,0.7-0.5,0.9c0.1,0.2,0.1,0.4,0.1,0.6
		c0,0.7-0.4,1.2-1.2,1.5c-0.1,0.4-0.3,0.8-0.6,1.1c-0.5,0.5-1,0.5-1,0.7c0,0.1,0.1,0.2,0.3,0.2c0.9,0,1.9-0.5,2-1.4
		C14.5,5.4,15,4.5,15,3.8c0-0.2,0-0.3-0.1-0.5c0.2-0.2,0.5-0.6,0.5-1.3c0-0.5-0.2-1.1-0.6-1.5C14.5,0.2,14,0,13.4,0
		c-0.9,0-1.4,0.5-1.7,0.9c-0.9,0-2.1,1-2.1,2.5H9.4C9.3,2.9,8.8,2.6,8.4,2.5c-0.4-1.1-1.2-2-2.5-2c-0.2,0-0.3,0-0.5,0
		C5,0.2,4.5,0,3.9,0C2.8,0,1.8,0.9,1.8,2.1c0,0.7,0.3,1.2,1,1.7c0,0,0,0.1,0,0.1c0,0.9,1,2.4,2.5,2.4c0,0.2,0.3,0.6,0.6,0.6v0.1H5.8
		c-2.1,0-3,1-3,1.7c-0.6,0.3-1,0.9-1,1.6c0,1.3,0.9,2.2,2.2,2.2c0.4,0,0.8-0.2,1.1-0.4c0.2,0.1,0.5,0.1,0.8,0.1
		c0.6,0,1.2-0.2,1.7-0.9c0.1,0,0.1,0,0.2,0c0.8,0,1.4-0.5,1.7-1.1c0.1-0.2,0.1-0.3,0.1-0.4c0-0.1,0-0.2-0.1-0.2
		c-0.1,0-0.1,0.1-0.3,0.3c-0.5,0.4-1.2,0.6-2,0.6c-0.4,0.5-0.8,0.8-1.3,0.8c-0.4,0-0.7-0.1-1-0.3c-0.2,0.3-0.6,0.4-0.9,0.4
		c-0.7,0-1.2-0.5-1.2-1.2c0-0.5,0.3-0.9,0.7-1.1c0.1-0.8,1-1.4,2.1-1.4c0.1,0,0.3,0,0.4,0c0.2-0.3,0.6-0.6,1.2-0.6
		c0.1,0,0.2,0,0.3-0.1c0.1,0,0.1-0.1,0.1-0.2c0-0.1,0-0.1-0.1-0.2c-0.1,0-0.2-0.1-0.3-0.1C6.8,6.6,6.1,6.3,5.8,5.5
		c-1.3,0-2.2-1-2.2-2.2V3.2C3.1,3.1,2.8,2.7,2.8,2.2C2.8,1.5,3.3,1,4,1c0.4,0,0.7,0.2,0.9,0.5c0.2-0.1,0.4-0.1,0.6-0.1
		c1,0,2,0.6,2.2,1.8c1.2,0.1,1.5,1.2,1.6,1.6c0,0.2,0.1,0.4,0.2,0.4c0.2,0,0.2-0.2,0.2-0.4C9.8,4.4,10,4,10.3,3.7
		C10.3,2.6,11.1,1.7,12.3,1.7L12.3,1.7L12.3,1.7z M32.4,40.7h-0.5c-0.2,0-0.3,0.1-0.4,0.1c-0.1,0.1-0.2,0.2-0.2,0.4v0.6
		c0,0.2,0.1,0.3,0.2,0.4c0.1,0.1,0.2,0.1,0.4,0.1h0.5v4.3c0,1.1,0.3,1.8,0.9,2.3c0.5,0.5,1.2,0.8,2.3,0.8h0.7c0.2,0,0.3-0.1,0.4-0.1
		c0.1-0.1,0.2-0.2,0.2-0.4v-0.7c0-0.2-0.1-0.3-0.2-0.4c-0.1-0.1-0.2-0.1-0.4-0.1h-0.1c-0.5,0-0.8-0.1-1-0.3
		c-0.3-0.2-0.4-0.6-0.4-1.1v-4.1h1.6c0.2,0,0.3-0.1,0.4-0.1c0.1-0.1,0.2-0.2,0.2-0.4v-0.6c0-0.2-0.1-0.3-0.2-0.4
		c-0.1-0.1-0.2-0.1-0.4-0.1h-1.5v-2.8c0-0.2-0.1-0.4-0.2-0.5c-0.1-0.2-0.3-0.2-0.6-0.2h-1c-0.3,0-0.4,0.1-0.6,0.2
		c-0.1,0.1-0.2,0.3-0.2,0.5V40.7L32.4,40.7z M37.6,49.1c0,0.2,0.1,0.4,0.2,0.5c0.1,0.2,0.3,0.2,0.6,0.2h1c0.3,0,0.4-0.1,0.6-0.2
		c0.1-0.1,0.2-0.3,0.2-0.5V37.9c0-0.2-0.1-0.4-0.2-0.5c-0.1-0.2-0.3-0.2-0.6-0.2h-1c-0.3,0-0.4,0.1-0.6,0.2
		c-0.1,0.1-0.2,0.3-0.2,0.5V49.1L37.6,49.1z M14.8,8.3c-0.4,0.6-0.7,0.9-1.6,1.9c-1.2,1.4-1.8,2.6-2.9,5.1c0.2,0,0.4,0,0.7,0
		c0.1,0,0.2,0,0.4,0l0.1-0.3c0.6-1.3,1.4-3,2.5-4.3l0.4-0.5c1.1-1.3,1.9-2.1,2.3-4c0.2-0.6,0.3-1.2,0.7-1.6c0.4-0.4,0.9-0.5,1.4-0.5
		c0.4,0,0.7,0.1,1.2,0.3c0.4,0.2,0.6,0.2,1,0.2c0.2,0,0.3,0,0.4,0l-0.6,0.8l0.8,0.6c-1,0.3-1.6,1.3-1.7,1.7c0,0.1-0.1,0.2-0.1,0.2
		c0,0.1,0,0.1,0.1,0.1c0.1,0,0.2-0.1,0.3-0.3c0.5-0.6,0.9-1,2.7-1.6l-1.3-1l1-1.4h-0.9c-0.6,0-1,0-1.5-0.2c-0.7-0.3-1-0.5-1.6-0.5
		c-0.7,0-1.4,0.3-2,0.8c-0.6,0.6-0.8,1.4-1.1,2.2C15.5,6.9,15.3,7.7,14.8,8.3L14.8,8.3L14.8,8.3z M16.8,14.2
		c-0.5,0.7-1.2,1.5-1.7,2.4c0.2,0.1,0.7,0.4,0.9,0.5c0.6-0.9,1.4-2,1.9-2.8c0.5-0.8,0.7-1.1,0.7-2.1c0-0.2,0-0.3,0-0.5
		c0-0.5,0.2-1,0.7-1.5c0.4-0.4,0.9-0.6,1.4-0.6c0.5,0,0.8,0.1,1.3,0.1c0.3,0,0.5-0.1,0.8-0.2l0.2-0.1l-0.4,0.9l0.9,0.4
		c-0.6,0.4-1.9,1.9-1.9,3.8c0,0.7,0.1,1.3,0.2,1.9c0,0.1,0.1,0.1,0.1,0.1c0.1,0,0.1-0.1,0.2-0.1l0-0.2c0-0.6,0.1-1.5,0.3-2.3
		c0.4-1.4,1.4-2.6,2.4-3.3l-1.5-0.6l0.6-1.5l-0.7,0.1c-0.4,0.1-0.7,0.2-1.1,0.2c-0.2,0-0.5,0-0.8-0.1c-0.2-0.1-0.5-0.1-0.9-0.1
		c-0.7,0-1.4,0.3-1.9,0.7c-0.9,0.9-1,1.8-1,2.6C17.6,13.1,17.4,13.4,16.8,14.2L16.8,14.2L16.8,14.2z M38.7,14.7
		c-0.1-0.1-0.1-0.1-0.2-0.1c-0.1,0-0.2,0.1-0.2,0.1c0,0.1,0.1,0.3,0.3,0.6c0.6,1.1,1.5,2.2,2.4,3.3c1.1,1.1,2.3,2.2,3.7,3.1l0.4,0.3
		c0.1,0,0.1,0.1,0.2,0.1c0.1,0,0.1-0.1,0.1-0.2c0,0,0-0.1-0.1-0.1c-1.2-1.1-2.6-2.5-3.8-3.8C40.6,16.9,39.5,15.8,38.7,14.7
		L38.7,14.7L38.7,14.7z M15.8,44.1c0.1-1,0.9-1.8,2.1-1.8c1.2,0,2,0.8,2.1,1.8H15.8L15.8,44.1z M11.2,10.8c0.1-0.2,0.5-0.7,0.7-0.9
		c-0.7-1.3-1.7-2.6-2.2-3.1L9.3,7.2C9.7,7.8,10.5,9.1,11.2,10.8L11.2,10.8L11.2,10.8z M5,3.1C4.9,3,4.9,3,4.9,2.9
		c0-0.1,0-0.1,0.1-0.1c0,0,0.1,0,0.1,0c0.6,0.3,1.2,0.6,1.6,0.9c0.4,0.3,0.8,0.7,1.2,1.1L7.6,5.3C7.1,4.9,5.7,3.7,5,3.1L5,3.1L5,3.1
		z M11,6l-0.5-0.3c0.3-0.7,0.7-1.4,1.1-1.8c0.3-0.3,0.6-0.6,0.9-0.9c0.1-0.1,0.1-0.1,0.2-0.1c0.1,0,0.1,0.1,0.1,0.1
		c0,0,0,0.1-0.1,0.1C12.3,3.9,11.3,5.5,11,6L11,6L11,6z M5.2,9.9C5.1,10,5.1,10,5,10c-0.1,0-0.1-0.1-0.1-0.1s0-0.1,0.1-0.1
		c1-0.8,2-1.1,3.2-1.4l0.2,0.5L5.2,9.9L5.2,9.9z M27.1,3.3c0-0.3,0.2-0.8,0.7-0.8c0.2,0,0.4,0,0.5,0.1c0.2,0.1,0.3,0.2,0.3,0.4
		c0,0.2-0.2,0.3-0.4,0.5c-0.2,0.2-0.5,0.4-0.8,0.4C27.2,3.8,27.1,3.5,27.1,3.3L27.1,3.3L27.1,3.3z M18.4,5.8c0-0.4,0.2-0.8,0.6-0.8
		c0.2,0,0.4,0.1,0.6,0.2c0.1,0.1,0.1,0.2,0.1,0.3c0,0.2-0.2,0.4-0.4,0.5c-0.2,0.1-0.4,0.2-0.5,0.2C18.6,6.2,18.4,6.1,18.4,5.8
		L18.4,5.8L18.4,5.8z M20.4,11.1c0-0.1,0-0.2,0-0.3c0.1-0.2,0.2-0.4,0.6-0.4c0.2,0,0.3,0,0.5,0.1c0.1,0.1,0.2,0.2,0.2,0.3
		c0,0.4-0.6,0.8-0.9,0.8C20.6,11.6,20.4,11.4,20.4,11.1L20.4,11.1L20.4,11.1z M49.3,39.1c0.2,0,0.3-0.1,0.4-0.1
		c0.1-0.1,0.2-0.2,0.2-0.4v-0.8c0-0.3-0.1-0.5-0.2-0.6c-0.1-0.1-0.2-0.2-0.4-0.2c-0.1,0-0.3,0-0.5,0L42,37.7c-0.2,0-0.3,0.1-0.4,0.2
		c-0.1,0.1-0.1,0.2-0.1,0.3v0.4c0,0.2,0,0.2,0.1,0.3c0.1,0.1,0.2,0.1,0.3,0.1H49.3L49.3,39.1z M45.6,40.4c-3,0-4.6,2.3-4.6,4.8
		c0,2.6,1.8,4.9,4.6,4.9c1.4,0,2.8-0.5,3.6-1.5c0.3-0.4,0.6-1,0.6-1.3c0-0.1,0-0.2-0.1-0.3c-0.1-0.1-0.2-0.1-0.3-0.1H48
		c-0.3,0-0.5,0.1-0.6,0.3c-0.4,0.6-1,0.9-1.8,0.9c-1.3,0-2.1-1-2.2-2h6c0.3,0,0.5-0.1,0.6-0.2c0.1-0.1,0.2-0.3,0.2-0.7
		c0-1.1-0.3-2.3-1.1-3.2C48.4,41,47.2,40.4,45.6,40.4L45.6,40.4L45.6,40.4z M43.5,44.1c0.1-1,0.9-1.8,2.1-1.8c1.2,0,2,0.8,2.1,1.8
		H43.5L43.5,44.1z M17.1,21.8c-1.2,0-1.7-0.5-1.7-1.2c0-1.2,2.1-2.4,4-3.1l0.5,0.6c-1.2,0.5-3.5,1.5-3.5,2.3c0,0.3,0.2,0.5,0.9,0.5
		c1.2,0,2.6-0.6,3.8-1.2c0.1,0,0.2-0.1,0.3-0.1c0.2,0,0.3,0.1,0.4,0.2l0.2,0.3C20.6,21,18.8,21.8,17.1,21.8L17.1,21.8L17.1,21.8z
		 M20.3,22.2c-1.1,0.6-2.3,1-3.3,1c-1.2,0-2.2-0.5-3-1.8c-0.4-0.5-0.6-1.2-1-1.8c-0.4-0.7-0.9-1.1-1.6-1.1c-0.7,0-1.4,0.3-2.1,0.6
		l0,0.2c0.1,0.3,0.2,0.5,0.4,0.5c0.1,0,0.2-0.1,0.3-0.1c0.4-0.1,0.7-0.2,1.1-0.2c0.6,0,0.9,0.4,1.4,1.3l0.2,0.3
		c-0.4,0.2-1.5,0.2-2.3,0.2H9.9l0.1,0.4c0,0.2,0.1,0.3,0.2,0.3c0.2,0.1,0.4,0.1,0.8,0.1c1,0,1.7-0.1,2.1-0.2c1,1.6,2.5,2.2,3.9,2.2
		c1.2,0,2.4-0.4,3.5-1.1L20.3,22.2L20.3,22.2z M21.4,22.5l-0.2-0.8c1.8-0.9,3.4-1.7,5.9-2c0.1,1,0,2.2,0.7,2.2
		c0.7,0,2.1-1.7,3.8-3.9c0.2,0.1,0.4,0.3,0.6,0.5l-0.4,0.6c-1.6,2.1-3,3.9-4.2,3.9c-1.1,0-1.5-1.3-1.5-2.2
		C24.5,21,23,21.6,21.4,22.5L21.4,22.5L21.4,22.5z M44,5.4c-0.7,0-0.9-0.4-0.9-0.9c0-1.1,0.7-2.6,1.1-3.5h-1c-0.5,1-2.7,4.4-3.8,5.8
		l0.7,0.7c0.6-0.7,1.3-1.8,2-3h0.1c0,0.1,0,0.1,0,0.2c0,1,0.5,1.7,1.7,1.7c0.8,0,1.9-0.4,3-0.8c0.9-0.3,1.8-0.6,2.2-0.8v-1
		c-0.5,0.1-1.5,0.5-2.5,0.9C45.6,5.1,44.6,5.4,44,5.4L44,5.4L44,5.4z M46.3,8.5c1-0.4,2.9-1.2,3.9-1.6v-1c-2.1,0.8-5.9,2.3-8.4,3.7
		c0.1,0.1,0.5,0.7,0.6,0.8c1.1-0.4,2-0.7,2.9-0.7c1.2,0,2.2,0,3.9-0.4V8.5c-0.9,0.2-1.9,0.4-2.6,0.4c-0.4,0-0.5-0.1-0.5-0.2
		C46.1,8.6,46.1,8.6,46.3,8.5L46.3,8.5L46.3,8.5z M24,14.1h4.4L28,13.3h-3.6L24,14.1L24,14.1z M8.7,18c0.5,0,0.8-0.2,1.2-0.3
		c0.3-0.1,0.7-0.3,1.1-0.3c1.1,0,2.4,0.5,3.6,1c0.1,0,0.1,0,0.2,0c0.2,0,0.3-0.1,0.4-0.3l0.2-0.3c-1.3-0.8-3.4-1.6-4.5-1.6
		c-0.5,0-0.9,0.1-1.2,0.3C9.4,16.8,9.1,17,8.7,17c-0.9,0-3.1-0.9-3.1-1.7c0-1,3.5-1.3,3.9-1.3l0.3-0.8c-2.6,0-5.6,0.9-5.6,2.1
		c0,0.3,0.2,0.5,0.2,0.8c0,0.4-0.2,0.7-0.2,1.2c0,0.3,0.2,0.7,0.4,1.1c0.2,0.4,0.5,0.6,0.5,0.9c0,0.2-0.2,0.5-0.2,1
		c0,1.2,0.7,1.9,1.9,3.2l0.3,0.3c-1.1,0.4-3,1.3-3.5,1.5c-1.6,0.7-2,1.5-2,2.8c0,0.5,0,1.1,0,1.6h0.3c0.6,0,0.7-0.4,0.7-0.8
		c0-0.2,0-0.5,0-0.8c0-0.7,0-1.3,1.2-1.9c0.5-0.2,2.7-1.1,4.4-1.8c0.5-0.2,1-0.4,1.5-0.4c0.6,0,1.2,0.2,2,0.7c0.7,0.4,1.4,1,2,1.6
		l0.7-0.6c-0.6-0.7-1.5-1.4-2.3-1.9c-0.9-0.5-1.6-0.8-2.3-0.8c-0.3,0-0.5,0.1-0.7,0.1c-0.2,0.1-0.4,0.1-0.7,0.1
		c-0.3,0-0.6-0.1-1-0.5c-0.1-0.2-1.1-1.2-1.3-1.5c-0.1-0.1-0.3-0.4-0.3-0.8c0-0.1,0-0.3,0.1-0.5c0.8,0.6,1.8,1,3,1.1L9,20.2
		c-1.7-0.5-3.5-2-3.5-2.9c0-0.2,0.1-0.3,0.1-0.5C6.3,17.3,7.9,18,8.7,18L8.7,18L8.7,18z M21,18.1c1.1-0.8,2.2-0.8,3.1-0.8
		c0.5,0,1.2,0.1,1.8,0.2c0.5,0.1,1,0.1,1.6,0.1c1.2,0,2.3-0.4,2.9-0.6c0.1,0.2,0.4,0.4,0.6,0.6c-0.2,0.2-1.8,1-3.4,1
		c-0.7,0-1.4-0.1-2-0.2c-0.5-0.1-1.1-0.1-1.6-0.1c-0.6,0-1.8,0.2-2.5,0.5L21,18.1L21,18.1z M36.8,21.2c-1.3,2.7-3.2,4.7-5.2,5.8
		c-0.9,0.5-1.8,0.9-3.6,0.9h-4c-1.4,0-2.3,0.2-3,0.4c-0.8,0.2-1.2,0.4-2,0.4c-1.1,0-2.2-0.6-2.7-1.1l0.9-0.7l-0.5-0.6
		c-0.3,0.2-3.6,2.7-4.3,3.2l0,0c0-0.2,0-0.3,0-0.5c0-1.9-0.9-2.3-2.2-2.9l-0.9,0.5c1.8,0.6,2.3,1.1,2.3,2.4c0,1.1-0.4,1.5-0.9,1.8
		c-0.6,0.3-1.3,0.5-1.9,0.5c-0.3,0-0.4,0.1-0.5,0.1c-0.1,0.1-0.2,0.3-0.2,0.5v0.3h0.2c1.1,0,2.2-0.2,3.4-1.1l3.8-3
		c0.5,0.6,1.9,1.5,3.5,1.5c0.9,0,1.5-0.2,2.3-0.4c0.6-0.2,1.3-0.3,2.7-0.3h4c2,0,3-0.4,4.1-1c2.4-1.3,4.4-3.6,5.5-6.2
		C37.3,21.5,37.1,21.3,36.8,21.2L36.8,21.2L36.8,21.2z M30.4,24.4c1-1.7,2-3.1,4.2-4.3c-0.2-0.1-0.6-0.4-0.8-0.5
		c-0.9,0.4-1.7,1.2-2.5,1.9c-1.7,1.8-1.6,2.8-3.4,3.5c-0.5,0.2-1,0.4-1.7,0.5c-0.4-1.3-1.5-2.6-2.6-2.6c-0.8,0-1.7,0.4-2.7,0.9
		c-1.2,0.5-2.3,1.1-2.7,1.4l0.5,0.6c0.4-0.2,1.4-0.7,2.4-1.2c0.9-0.4,1.7-0.7,2.3-0.7c0.9,0,1.5,1,1.8,1.8c-1.2,0.3-3,0.3-3.6,0.3
		c-0.3,0-0.4,0-0.5,0.1c-0.1,0.1-0.2,0.2-0.2,0.4L21,26.9h0.6c3.2,0,6.2-0.5,8.1-1.7c0.3,0.1,0.5,0.1,0.8,0.1c1.1,0,2.3-0.6,3-1.2
		c0.3-0.2,0.3-0.4,0.3-0.6c0-0.1,0-0.2,0-0.3l0-0.3c-1,0.8-1.9,1.4-2.9,1.4C30.7,24.4,30.5,24.4,30.4,24.4L30.4,24.4z"/>
</g>
</svg>
