<?xml version="1.0" encoding="utf-8"?>
<!-- Generator: Adobe Illustrator 22.0.1, SVG Export Plug-In . SVG Version: 6.00 Build 0)  -->
<svg version="1.1" id="Layer_1" xmlns="http://www.w3.org/2000/svg" xmlns:xlink="http://www.w3.org/1999/xlink" x="0px" y="0px"
	 viewBox="0 0 150 50" style="enable-background:new 0 0 150 50;" xml:space="preserve">
<style type="text/css">
	.st0{fill:#61B3E4;}
</style>
<title>Artboard 1</title>
<g>
	<path class="st0" d="M56.8,33.5L56.8,33.5c0.2,5,3.2,8.3,8.4,8.3c3,0,5.9-1.3,7-4h11.5C81.5,46.3,73.4,49.9,65,49.9
		c-12.2,0-20.5-7.2-20.5-19.5c0-11.1,9.1-19.2,20.2-19.2c13.5,0,20.2,9.9,19.7,22.3L56.8,33.5z M72,26.8L72,26.8
		c-0.2-4.1-3.2-7.4-7.3-7.4c-4.3,0-7.2,3-8,7.4L72,26.8z"/>
	<path class="st0" d="M129.7,11.2L129.7,11.2c11.7,0,19.9,8.4,19.9,19.4S141.4,50,129.7,50c-11.6,0-19.7-8.4-19.7-19.4
		S118.1,11.2,129.7,11.2z M129.7,40.8L129.7,40.8c5.7,0,7.6-5.5,7.6-10.1s-1.8-10.2-7.6-10.2c-5.8,0-7.5,5.6-7.5,10.2
		C122.3,35.3,124,40.8,129.7,40.8z"/>
	<path class="st0" d="M26.5,20.1h-7.6v16.3c0,3,1.7,3.7,4.4,3.7c1.1,0,2.2-0.2,3.2-0.2V49c-2.2,0.1-4.5,0.4-6.7,0.4
		c-10.5,0-13.2-3.1-13.2-13.3v-16H0.4v-8h6.2V0h12.3v12.1h7.6L26.5,20.1z"/>
	<path class="st0" d="M42.2,8.8H29.8V0h12.4V8.8z M29.8,12.1h12.4V49H29.8V12.1z"/>
	<path class="st0" d="M109.8,20.1h-7.5v16.3c0,3,1.7,3.7,4.4,3.7c1,0,2.1-0.2,3.2-0.2V49c-2.2,0.1-4.5,0.4-6.7,0.4
		c-10.5,0-13.2-3.1-13.2-13.3v-16h-6.2v-8h6.2V0h12.4v12.1h7.5V20.1z"/>
</g>
</svg>
