<?xml version="1.0" encoding="utf-8"?>
<!-- Generator: Adobe Illustrator 22.0.1, SVG Export Plug-In . SVG Version: 6.00 Build 0)  -->
<svg version="1.1" id="Layer_1" xmlns="http://www.w3.org/2000/svg" xmlns:xlink="http://www.w3.org/1999/xlink" x="0px" y="0px"
	 viewBox="0 0 340 50" style="enable-background:new 0 0 340 50;" xml:space="preserve">
<style type="text/css">
	.st0{fill:#655CAC;}
	.st1{fill:none;}
	.st2{fill:#665CA7;}
	.st3{fill:none;stroke:#665CA7;stroke-width:1.9274;stroke-linecap:round;stroke-linejoin:round;}
</style>
<g>
	<g>
		<g>
			<g>
				<g>
					<g>
						<g>
							<polygon class="st0" points="192.4,42.4 96.9,42.4 104.5,50 							"/>
							<path class="st0" d="M105.7,11.7v1.2c-1.7-1.2-3.4-1.8-5.6-1.8c-6.7,0-11.7,6.1-11.7,13.6s5.1,13.6,11.7,13.6
								c2.2,0,3.7-0.6,5.6-1.8v1.2h5.9V11.7L105.7,11.7L105.7,11.7z M100.2,32c-3.3,0-5.7-3.2-5.7-7.4s2.4-7.4,5.7-7.4
								c3.3,0,5.6,3.2,5.6,7.4C105.8,28.7,103.5,32,100.2,32z"/>
							<path class="st0" d="M152.9,11.7v15.2c0,2.8-1.9,5.3-4.8,5.3c-2.8,0-4.8-2.4-4.8-5.3V11.7h-5.9v15.2
								c0,6.3,4.3,11.3,10.5,11.3c2.9,0,5-1.6,5-1.6v1h5.9V11.7H152.9z"/>
							<path class="st0" d="M207.7,37.5V22.3c0-2.8,1.9-5.3,4.8-5.3c2.8,0,4.8,2.4,4.8,5.3v15.2h5.9V22.3c0-6.3-4.3-11.3-10.5-11.3
								c-2.9,0-5,1.6-5,1.6v-1h-5.9v25.9H207.7z"/>
							<path class="st0" d="M71.5,37.5V27.5h4.3l7.6,10.1H91l-9.1-12.1c2.8-2.1,4.7-5.4,4.7-9.1c0-6.1-5-11.2-11.2-11.2H65.3v32.3
								L71.5,37.5L71.5,37.5z M71.5,11.3h4c2.8,0,5,2.3,5,5s-2.3,5-5,5h-4V11.3z"/>
							<path class="st0" d="M174.6,31.4c-0.5,0.4-1.2,0.6-1.9,0.6c-1,0-2.8-0.7-2.8-3.2V17.8h5v-6.1h-5V5.2H164v6.5h-3.1v6.1h3.1V29
								c0,5.8,4.4,9.2,8.7,9.2c1.6,0,3.9-0.5,5.7-1.6L174.6,31.4z"/>
							<polygon class="st0" points="126.2,23.8 136.3,11.7 128.1,11.7 121,20.7 121,3.1 115,3.1 115,37.5 121,37.5 121,27 
								129.7,37.5 138,37.5 							"/>
							<path class="st0" d="M188.2,11c-6.8,0-11.7,6-11.7,13.6c0,8,6.1,13.6,12.3,13.6c3.1,0,7.1-1,10.4-5.8l-5.2-3
								c-4,5.9-10.7,2.9-11.5-3h16.9C200.9,17.1,194.8,11,188.2,11z M193.3,21.3h-10.6C183.9,15.2,192.2,14.8,193.3,21.3z"/>
						</g>
					</g>
				</g>
			</g>
			<g>
				<g>
					<g>
						<g>
							<g>
								<path class="st0" d="M242.1,35.3l-9.5-23.6c-0.1-0.3-0.3-0.6-0.3-1c-0.1-0.3-0.1-0.7-0.1-1c0-1,0.3-1.8,1-2.5
									c0.7-0.6,1.5-1,2.6-1c0.8,0,1.4,0.3,1.9,0.7c0.5,0.5,1,1.2,1.4,2.3l6.5,17.4l6.2-17.1c0.4-1.2,0.9-2.1,1.4-2.6
									c0.5-0.5,1.2-0.7,2.1-0.7c1.1,0,1.9,0.3,2.5,0.8c0.6,0.6,0.9,1.4,0.9,2.4c0,0.4-0.1,0.8-0.1,1.2c-0.1,0.4-0.2,0.8-0.3,1.2
									L249,35.1c-0.4,1-0.9,1.8-1.4,2.3c-0.6,0.5-1.3,0.7-2.1,0.7c-0.8,0-1.5-0.2-2-0.6C243,37,242.5,36.3,242.1,35.3z"/>
							</g>
							<g>
								<path class="st0" d="M267.1,33.3c0,1.6-0.3,2.8-0.8,3.6c-0.5,0.8-1.4,1.2-2.4,1.2c-1.1,0-1.9-0.4-2.5-1.2
									c-0.5-0.8-0.8-1.9-0.8-3.6v-13c0-1.6,0.3-2.8,0.8-3.6c0.5-0.8,1.4-1.2,2.5-1.2s1.9,0.4,2.4,1.2c0.5,0.8,0.8,1.9,0.8,3.6
									V33.3z"/>
							</g>
							<g>
								<path class="st0" d="M276.9,15.7c0.8-0.6,1.6-1.2,2.5-1.5c0.9-0.3,1.9-0.5,2.9-0.5c3,0,5.5,1.2,7.6,3.6c2.1,2.3,3,5.3,3,8.8
									c0,3.4-1,6.2-3.2,8.5c-2.1,2.3-4.6,3.6-7.4,3.6c-1.2,0-2.2-0.2-3.2-0.6c-1-0.4-1.7-1-2.5-1.7c-0.5,0.7-0.9,1.3-1.5,1.7
									c-0.5,0.4-1.2,0.6-1.8,0.6c-1.2,0-2-0.4-2.6-1.2c-0.6-0.8-0.8-2.1-0.8-3.8V11.3c0-1.7,0.3-3,0.8-3.8
									c0.6-0.8,1.4-1.2,2.6-1.2s2.1,0.4,2.6,1.2c0.6,0.8,0.8,2.1,0.8,3.8L276.9,15.7L276.9,15.7z M276.4,26c0,1.9,0.5,3.4,1.4,4.5
									c0.9,1.2,2.1,1.7,3.6,1.7c1.4,0,2.6-0.6,3.6-1.7c0.9-1.2,1.4-2.6,1.4-4.5s-0.5-3.4-1.4-4.6c-0.9-1.2-2.1-1.7-3.6-1.7
									c-1.5,0-2.6,0.6-3.6,1.7C276.8,22.6,276.4,24.1,276.4,26z"/>
							</g>
							<g>
								<path class="st0" d="M300.6,27.9c0.1,1.3,1.1,2.3,2,3c0.9,0.7,2.1,1.1,3.6,1.1c1.3,0,2.7-0.4,4.3-1.1
									c1.6-0.8,2.6-1.1,2.9-1.1c0.8,0,1.5,0.3,2,0.8c0.5,0.5,0.8,1.2,0.8,1.9c0,1.5-1,2.8-3.1,4c-2.1,1.2-4.5,1.8-7.3,1.8
									c-3.4,0-6.3-1.2-8.5-3.5s-3.4-5.2-3.4-8.7s1.1-6.5,3.3-8.8c2.2-2.3,5-3.5,8.3-3.5c3.2,0,5.9,1.1,8,3.3
									c2.1,2.2,3.2,4.9,3.2,8.1c0,1-0.3,1.7-0.7,2.2c-0.5,0.4-1.4,0.6-2.7,0.6h-12.7V27.9z M300.4,23.9h10.1
									c-0.1-1.3-0.6-2.6-1.5-3.5c-1-0.8-2.1-1.3-3.4-1.3s-2.5,0.4-3.4,1.2C301.2,21.1,300.6,22.5,300.4,23.9z"/>
							</g>
							<g>
								<path class="st0" d="M318.7,33V19.1c0-1.7,0.3-3,0.8-3.7c0.6-0.8,1.4-1.2,2.6-1.2c0.7,0,1.3,0.2,1.9,0.5
									c0.5,0.4,1,0.9,1.4,1.7c0.7-0.8,1.5-1.4,2.3-1.7c0.8-0.4,1.6-0.6,2.4-0.6c1,0,1.7,0.3,2.5,1c0.7,0.6,1,1.5,1,2.4
									c0,1.4-1.3,2.5-3.8,3.5c-0.9,0.3-1.6,0.6-2.1,0.8c-0.8,0.4-1.4,0.8-1.7,1.4c-0.3,0.5-0.5,1.4-0.5,2.7V33
									c0,1.7-0.3,3-0.8,3.8c-0.6,0.8-1.4,1.2-2.6,1.2s-2-0.4-2.6-1.2C319,35.9,318.7,34.6,318.7,33z"/>
							</g>
							<g>
								<path class="st0" d="M260.4,9.8c0-1,0.4-1.8,1.1-2.5s1.5-1,2.6-1c1,0,1.8,0.3,2.5,1c0.7,0.7,1,1.5,1,2.5s-0.3,1.9-1,2.5
									c-0.7,0.7-1.5,1-2.5,1c-1,0-1.9-0.3-2.6-1C260.7,11.7,260.4,10.8,260.4,9.8z"/>
							</g>
						</g>
					</g>
				</g>
			</g>
		</g>
		<g>
			<g>
				<g>
					<rect x="65.3" y="5.2" class="st1" width="268.2" height="37.2"/>
				</g>
			</g>
		</g>
	</g>
	<g>
		<path class="st2" d="M47.8,4.8C46.6,3.7,41.7,0.1,30.7,0c0,0-13-0.8-19.3,5c-3.6,3.6-4.8,8.7-4.9,15c-0.1,6.4-0.3,18.3,11.2,21.6
			l0,0v5c0,0-0.1,2,1.2,2.4c1.6,0.5,2.5-1,4.1-2.6c0.8-0.9,2-2.2,2.8-3.2c7.9,0.6,13.9-0.8,14.7-1.1c1.6-0.5,10.6-1.7,12.1-13.6
			C54.1,16.1,51.9,8.3,47.8,4.8z M49.2,27.5c-1.2,10-8.5,10.7-9.9,11c-0.6,0.2-5.9,1.5-12.6,1.1c0,0-5,6-6.6,7.6
			c-0.3,0.3-0.5,0.3-0.7,0.3c-0.3-0.1-0.3-0.4-0.3-0.8c0-0.6,0.1-8.3,0.1-8.3l0,0c-9.7-2.7-9.2-12.9-9.1-18.3
			c0.1-5.4,1.1-9.7,4.1-12.7c5.4-4.8,16.4-4.1,16.4-4.1c9.3,0.1,13.8,2.8,14.8,3.8C48.7,10.2,50.4,17.3,49.2,27.5z"/>
		<path class="st3" d="M35.2,19.9c-0.1-2.5-1.4-3.7-3.7-3.9"/>
		<path class="st3" d="M38.4,20.9c0.1-2.3-0.6-4.2-2-5.7c-1.4-1.5-3.4-2.4-5.8-2.6"/>
		<path class="st3" d="M41.6,22.2c0-3.9-1.2-7-3.6-9.3s-5.2-3.4-8.7-3.4"/>
		<path class="st2" d="M31.6,28.2c0,0,0.9,0.1,1.4-0.5l0.9-1.2c0.5-0.6,1.5-1,2.6-0.4c0.6,0.3,1.6,1,2.3,1.5
			c0.7,0.5,2.1,1.7,2.1,1.7c0.7,0.6,0.8,1.4,0.4,2.3l0,0c-0.5,0.8-1.1,1.6-1.9,2.3l0,0c-0.6,0.6-1.3,0.8-1.9,1c-0.1,0-0.2,0-0.3,0
			c-0.3,0-0.6-0.1-0.8-0.1l0,0c-1-0.3-2.6-1-5.4-2.5c-1.7-1-3.2-2-4.5-3c-0.6-0.5-1.4-1.1-2-1.8l-0.1-0.1l-0.1-0.1l0,0l0,0l-0.1-0.1
			l-0.1-0.1c-0.7-0.7-1.3-1.4-1.8-2c-1-1.2-2-2.7-3-4.5c-1.5-2.7-2.2-4.3-2.5-5.4l0,0c-0.1-0.3-0.1-0.5-0.1-0.8c0-0.1,0-0.2,0-0.3
			c0.1-0.6,0.4-1.3,1-1.9l0,0c0.7-0.8,1.5-1.4,2.3-1.9l0,0c0.9-0.5,1.7-0.3,2.3,0.4c0,0,1.2,1.4,1.7,2.1c0.5,0.6,1.1,1.7,1.5,2.3
			c0.6,1,0.2,2.1-0.3,2.6l-1.2,0.9c-0.6,0.5-0.5,1.4-0.5,1.4S25.2,26.5,31.6,28.2z"/>
	</g>
</g>
</svg>
